<?xml version="1.0" encoding="UTF-8" standalone="no"?>
<!-- Generator: Adobe Illustrator 16.0.0, SVG Export Plug-In . SVG Version: 6.00 Build 0)  -->

<svg
   version="1.1"
   id="Content"
   inkscape:version="1.2 (dc2aedaf03, 2022-05-15)"
   sodipodi:docname="c4lance.svg"
   x="0px"
   y="0px"
   width="1056px"
   height="1056px"
   viewBox="0 0 1056 1056"
   enable-background="new 0 0 1056 1056"
   xml:space="preserve"
   xmlns:inkscape="http://www.inkscape.org/namespaces/inkscape"
   xmlns:sodipodi="http://sodipodi.sourceforge.net/DTD/sodipodi-0.dtd"
   xmlns="http://www.w3.org/2000/svg"
   xmlns:svg="http://www.w3.org/2000/svg"><defs
   id="defs26" /><sodipodi:namedview
   id="namedview24"
   pagecolor="#505050"
   bordercolor="#ffffff"
   borderopacity="1"
   inkscape:showpageshadow="0"
   inkscape:pageopacity="0"
   inkscape:pagecheckerboard="1"
   inkscape:deskcolor="#505050"
   showgrid="false"
   inkscape:zoom="0.47537879"
   inkscape:cx="531.15538"
   inkscape:cy="530.10358"
   inkscape:window-width="1366"
   inkscape:window-height="705"
   inkscape:window-x="-8"
   inkscape:window-y="-8"
   inkscape:window-maximized="1"
   inkscape:current-layer="g19" />
<g
   svg:extraneous="self"
   id="g19"
   inkscape:label="c4lance"
   style="display:inline"
   sodipodi:insensitive="true">
		<rect
   id="BG"
   inkscape:label="BG"
   fill="#d4af37"
   width="1056"
   height="1056"
   sodipodi:insensitive="true"
   x="0"
   y="0"
   style="display:none">
		</rect>
		
		
		
			
		<path
   id="path1796"
   style="display:inline;fill:#d4af37;fill-opacity:1;stroke:#d4af37;stroke-width:75;stroke-dasharray:none;stroke-opacity:1"
   d="m 695.33875,311.76063 c -5.86997,-4.24179 -10.6893,-8.21928 -10.70962,-8.83887 -0.0203,-0.61959 -2.67972,-10.87503 -5.90977,-22.78986 -3.23005,-11.91483 -5.8456,-22.56847 -5.81233,-23.67476 0.0333,-1.10628 2.16112,-4.57907 4.72853,-7.71729 l 4.66803,-5.70587 12.35678,6.23768 12.35677,6.23768 v 32.1539 c 0,17.68465 -0.22628,32.07646 -0.50285,31.98182 -0.27657,-0.0947 -5.30557,-3.64265 -11.17554,-7.88443 z M 512.91429,688.79799 c -2.21257,-0.51097 -9.00115,-1.89706 -15.08572,-3.08025 -6.08457,-1.18316 -19.60062,-6.25308 -30.03568,-11.26649 -48.55693,-23.32861 -79.2368,-75.98698 -76.00809,-130.45889 3.27864,-55.31412 40.46407,-103.86556 94.30724,-123.13299 13.0698,-4.67695 17.85287,-5.29206 41.90796,-5.38944 14.93486,-0.0605 28.81565,0.57021 30.84621,1.40149 3.39997,1.39189 3.20064,2.17944 -2.52072,9.95929 l -6.21264,8.44787 -22.62214,0.21309 c -19.07825,0.1797 -24.97829,1.05491 -37.66245,5.5868 -67.84455,24.24004 -98.29795,101.52322 -64.98547,164.917 13.67267,26.01912 36.11167,45.3615 64.94007,55.97821 11.20047,4.12481 16.67778,4.81489 38.21714,4.81489 21.53936,0 27.01668,-0.69008 38.21714,-4.81489 29.48733,-10.85937 52.45345,-31.119 65.79619,-58.04225 l 7.22702,-14.58286 h 10.75698 c 5.91631,0 10.75696,0.87164 10.75696,1.93697 0,4.95368 -9.21625,24.42562 -17.35614,36.66975 -23.75722,35.73596 -65.01044,58.96975 -108.20176,60.93914 -10.04258,0.45791 -20.06953,0.41452 -22.2821,-0.0964 z M 670.03884,454.08 c 11.80313,-15.76457 22.23637,-29.52274 23.18498,-30.57371 0.96688,-1.07121 1.72475,11.52356 1.72475,28.66285 v 30.57372 H 671.76359 648.57861 Z M 487.77143,813.54705 C 404.14397,800.32426 330.90795,747.49785 293.51122,673.42377 281.85707,650.33965 277.45891,638.68666 271.2685,614.49143 c -7.0384,-27.5096 -8.8581,-77.47224 -3.88981,-106.80076 3.86171,-22.79619 14.0905,-54.97545 23.38468,-73.56703 23.66678,-47.34178 66.08669,-91.03085 112.83475,-116.21068 56.0913,-30.21236 127.46941,-39.0939 188.91572,-23.50668 17.8751,4.53442 45.26229,14.1966 48.53913,17.12457 0.78025,0.6972 -1.48261,4.6481 -5.02857,8.77977 l -6.44726,7.51213 -20.11428,-6.94805 C 578.63383,310.22549 556.67843,307.11177 520.96,308.32325 476.87452,309.8185 440.69382,320.1529 404.68348,341.53564 305.45335,400.45793 261.14665,519.68349 297.7678,629.23663 c 27.58971,82.53535 96.12025,143.67242 180.9522,161.43004 72.82397,15.24403 150.24195,-3.82622 206.67429,-50.90978 l 9.55428,-7.9715 v 13.09257 c 0,12.77171 -0.18847,13.2419 -7.69333,19.18581 -9.58005,7.58753 -36.57191,23.65056 -48.62667,28.93802 -47.02861,20.62775 -102.53014,28.18649 -150.85714,20.54526 z M 762.19336,113.97656 678.11133,225.56055 c 14.26648,6.54983 28.15925,13.96216 41.51367,22.36718 v 100.26954 c -1.38404,-1.29784 -2.68095,-2.67128 -4.09375,-3.94336 -16.02412,-14.42827 -33.54097,-26.81816 -52.16992,-37.03516 l -28.98828,38.4668 c -16.69365,-8.4755 -34.45181,-14.90218 -53.15625,-19.22071 -16.99399,-3.92299 -34.40135,-5.91406 -51.73633,-5.91406 -51.36195,0 -102.12078,17.61002 -142.92774,49.58399 -41.44095,32.47096 -70.75688,78.47887 -82.54687,129.54882 -13.83399,59.92194 -3.38609,121.83785 29.42187,174.3418 32.80797,52.50295 83.87689,89.03611 143.79883,102.87109 16.99499,3.924 34.40235,5.91211 51.73633,5.91211 51.36095,0 102.11982,-17.60906 142.92578,-49.58203 13.86401,-10.86311 26.22809,-23.35357 37.17578,-36.92968 v 68.10742 c 3.5897,-3.03 7.11955,-6.13852 10.56055,-9.35742 v 100.35546 c -3.43961,2.16189 -7.04763,4.0652 -10.56055,6.11524 v 48.87695 0.002 h 79.99805 v -335 h 186 v -80 h -186 V 333.9375 l 95.99023,-127.38086 -98.45898,2.85156 z M 709.06445,861.51758 V 764.4043 c -49.95904,42.16945 -113.89812,65.87332 -180.46093,65.875 -69.16988,0.002 -135.39371,-25.3274 -186.47461,-71.32032 -55.1459,-49.6549 -87.67099,-118.11467 -91.58399,-192.76953 -3.91198,-74.65384 21.27774,-146.13927 70.93164,-201.28515 52.6279,-58.44988 128.28733,-91.97071 207.57617,-91.97071 47.47244,0 93.55542,11.9342 134.3086,34.28516 l 6.26562,-8.31641 -12.00586,-46.15039 20.49024,-27.1914 c -46.43669,-21.31939 -97.18696,-32.69922 -149.19141,-32.69922 -49.7759,0 -98.06452,10.04446 -143.52344,29.85742 -47.0529,20.50796 -88.47726,50.41383 -123.11718,88.88477 -32.41694,36.00292 -56.81562,77.26661 -72.51758,122.64453 -15.16598,43.8289 -21.62158,89.63186 -19.1836,136.13476 2.437,46.50392 13.64364,91.38085 33.3086,133.38477 20.35896,43.4889 48.93753,81.9737 84.93945,114.39062 66.02588,59.44988 151.2292,92.19232 239.91602,92.19532 0.006,0 0.0107,10e-4 0.0137,-0.002 49.7689,0 98.05291,-10.04546 143.50781,-29.85742 12.74396,-5.55456 24.91735,-12.04171 36.80078,-18.97656 z m 0,-481.81055 v 115.6875 h -87.17578 z m -179.65039,20.5 c 11.34799,0 22.74783,1.304 33.88282,3.875 7.35593,1.69817 14.60988,4.14854 21.79101,7.00781 l -30.6582,40.6836 c -9.45099,-2.458 -18.7502,-3.70117 -27.74219,-3.70117 -4.441,0 -8.86916,0.30715 -13.16016,0.91015 -27.30397,3.837 -51.53548,18.15357 -68.23046,40.31055 -16.69499,22.15698 -23.77841,49.39524 -19.94141,76.69922 7.14499,50.84295 51.26128,89.18359 102.61523,89.18359 4.788,0 9.62954,-0.33977 14.39453,-1.00976 42.38696,-5.958 76.49945,-37.65553 86.27344,-78.77149 h 50.09375 c -0.57672,3.43718 -1.10632,6.86261 -1.91406,10.36133 -15.70498,68.02293 -77.86199,117.39648 -147.79492,117.39648 -11.34599,0 -22.74492,-1.305 -33.87891,-3.875 C 413.75961,680.48736 362.83407,598.98843 381.62305,517.60352 397.32703,449.57958 459.48213,400.20703 529.41406,400.20703 Z"
   inkscape:label="Stroke"
   sodipodi:insensitive="true" /><path
   id="path3"
   style="display:inline;fill:#000000;fill-opacity:1;stroke:#4740b0;stroke-width:25;stroke-dasharray:none;stroke-opacity:1"
   inkscape:label="Outer"
   d="m 528.91992,192.86133 c -49.77595,0 -98.06448,10.04444 -143.52344,29.85742 -47.05295,20.50798 -88.47722,50.4138 -123.11718,88.88477 -32.41697,36.00296 -56.8156,77.26657 -72.51758,122.64453 -15.16599,43.82895 -21.62159,89.63181 -19.1836,136.13476 2.437,46.50396 13.64362,91.38081 33.3086,133.38477 20.35898,43.48895 48.93749,81.97366 84.93945,114.39062 66.02594,59.44994 151.22911,92.19232 239.91602,92.19532 0.006,0 0.0107,10e-4 0.0137,-0.002 49.76895,0 98.05286,-10.04544 143.50781,-29.85742 16.51128,-7.19658 32.28625,-15.61671 47.36133,-25.0918 V 755.04688 c -51.33057,48.01759 -119.67587,75.23062 -191.02148,75.23242 -69.16994,0.002 -135.39366,-25.32736 -186.47461,-71.32032 -55.14595,-49.65495 -87.67099,-118.1146 -91.58399,-192.76953 -3.91199,-74.65392 21.27769,-146.13921 70.93164,-201.28515 52.62795,-58.44994 128.28725,-91.97071 207.57617,-91.97071 69.17294,0 135.39957,25.32836 186.47852,71.32032 1.4128,1.27209 2.70971,2.64552 4.09375,3.94336 V 247.92773 C 662.80256,212.16472 596.9015,192.86133 528.91995,192.86133 Z"
   sodipodi:insensitive="true" /><path
   fill="#90e4c2"
   d="m 528.962,782.809 c -17.334,0 -34.741,-1.989 -51.736,-5.913 C 417.304,763.061 366.236,726.528 333.428,674.025 300.62,621.521 290.172,559.606 304.006,499.684 c 11.79,-51.07 41.106,-97.079 82.547,-129.55 40.807,-31.974 91.566,-49.583 142.928,-49.583 17.335,0 34.742,1.99 51.736,5.913 37.413,8.638 71.037,25.71 99.938,50.743 l 12.794,11.081 -70.386,43.979 -6.723,-4.509 c -17.063,-11.446 -35.078,-19.412 -53.544,-23.675 -11.135,-2.571 -22.534,-3.875 -33.882,-3.875 -69.932,0 -132.087,49.372 -147.791,117.396 -18.789,81.385 32.137,162.884 113.522,181.674 11.134,2.57 22.533,3.874 33.879,3.874 69.933,0 132.089,-49.373 147.794,-117.396 4.739,-20.527 5.504,-40.041 2.272,-58 l -1.498,-8.329 70.695,-44.176 4.352,16.356 c 9.829,36.95 10.434,74.655 1.797,112.069 -11.791,51.07 -41.107,97.079 -82.548,129.55 -40.806,31.973 -91.565,49.583 -142.926,49.583 z"
   id="path8"
   style="display:inline;stroke:#4740b0;stroke-width:25;stroke-dasharray:none;stroke-opacity:1"
   inkscape:label="Inner"
   sodipodi:insensitive="true" /><path
   fill="#ee73cd"
   d="m 709.064,910.395 v -335 h -80.426 c -9.774,41.116 -43.886,72.813 -86.273,78.771 -4.765,0.67 -9.607,1.01 -14.395,1.01 -51.354,0 -95.469,-38.341 -102.614,-89.184 -3.837,-27.304 3.245,-54.543 19.94,-76.7 16.695,-22.157 40.928,-36.473 68.232,-40.31 4.291,-0.603 8.718,-0.909 13.159,-0.909 8.992,0 18.291,1.242 27.742,3.7 l 115.198,-152.871 -12.006,-46.15 104.573,-138.776 24.4,95.433 98.459,-2.853 -95.99,127.382 v 161.458 h 186 v 80 h -186 v 335 h -79.999 z m 0,-415 V 379.708 l -87.176,115.687 z"
   id="path14"
   inkscape:label="Four"
   style="display:inline;stroke:#4740b0;stroke-width:25;stroke-dasharray:none;stroke-opacity:1"
   sodipodi:insensitive="true" />
	</g>

</svg>
