<?xml version="1.0" encoding="UTF-8" standalone="no"?>
<!-- Generator: Adobe Illustrator 16.0.0, SVG Export Plug-In . SVG Version: 6.00 Build 0)  -->

<svg
   version="1.1"
   id="Content"
   inkscape:version="1.2 (dc2aedaf03, 2022-05-15)"
   sodipodi:docname="c4lance.svg"
   x="0px"
   y="0px"
   width="1056px"
   height="1056px"
   viewBox="0 0 1056 1056"
   enable-background="new 0 0 1056 1056"
   xml:space="preserve"
   xmlns:inkscape="http://www.inkscape.org/namespaces/inkscape"
   xmlns:sodipodi="http://sodipodi.sourceforge.net/DTD/sodipodi-0.dtd"
   xmlns="http://www.w3.org/2000/svg"
   xmlns:svg="http://www.w3.org/2000/svg"
   xmlns:i="&amp;ns_ai;"><defs
   id="defs26" /><sodipodi:namedview
   id="namedview24"
   pagecolor="#505050"
   bordercolor="#ffffff"
   borderopacity="1"
   inkscape:showpageshadow="0"
   inkscape:pageopacity="0"
   inkscape:pagecheckerboard="1"
   inkscape:deskcolor="#505050"
   showgrid="false"
   inkscape:zoom="0.49715909"
   inkscape:cx="479.72571"
   inkscape:cy="529.00571"
   inkscape:window-width="1366"
   inkscape:window-height="705"
   inkscape:window-x="-8"
   inkscape:window-y="-8"
   inkscape:window-maximized="1"
   inkscape:current-layer="Content" />
<g
   i:extraneous="self"
   id="g19"
   inkscape:label="c4lance">
		<rect
   id="BG"
   inkscape:label="BG"
   fill="#d4af37"
   width="1056"
   height="1056"
   sodipodi:insensitive="true"
   x="0"
   y="0">
		</rect>
		<g
   id="Outer"
   inkscape:label="Outer">
			<path
   d="m 528.743,910.354 c -88.687,-0.003 -173.89,-32.745 -239.916,-92.195 -36.002,-32.417 -64.581,-70.903 -84.94,-114.392 -19.665,-42.004 -30.871,-86.88 -33.308,-133.384 -2.438,-46.503 4.017,-92.306 19.183,-136.135 15.702,-45.378 40.101,-86.642 72.518,-122.645 34.64,-38.471 76.063,-68.376 123.116,-88.884 45.459,-19.813 93.747,-29.858 143.523,-29.858 88.683,0 173.887,32.742 239.916,92.194 43.795,39.433 76.666,87.813 97.7,143.796 1.402,3.731 0.94,7.907 -1.242,11.241 -2.182,3.335 -5.824,5.429 -9.804,5.638 l -20.724,1.086 -6.685,10.109 c -0.112,0.171 -0.229,0.339 -0.352,0.504 l -10.837,14.759 c -2.378,3.24 -6.138,5.102 -10.073,5.103 -0.7,0 -1.406,-0.059 -2.111,-0.18 -4.666,-0.799 -8.48,-4.165 -9.854,-8.695 -14.382,-47.452 -41.811,-90.387 -79.322,-124.162 -51.079,-45.992 -117.305,-71.321 -186.478,-71.321 -79.289,0 -154.948,33.522 -207.576,91.972 -49.654,55.146 -74.845,126.631 -70.933,201.285 3.913,74.655 36.438,143.114 91.584,192.769 51.081,45.993 117.306,71.322 186.476,71.32 79.292,-0.002 154.951,-33.524 207.577,-91.972 33.228,-36.904 55.416,-81.303 65.947,-131.963 0.976,-4.694 4.55,-8.416 9.201,-9.581 1.007,-0.253 2.026,-0.375 3.037,-0.375 3.653,0 7.187,1.604 9.594,4.487 l 12.238,14.653 7.31,8.119 11.109,-0.996 c 0.371,-0.033 0.743,-0.05 1.115,-0.05 0.102,0 0.204,10e-4 0.307,0.004 l 8.396,0.205 c 3.767,0.092 7.291,1.878 9.592,4.861 2.302,2.984 3.134,6.847 2.267,10.513 -13.538,57.211 -40.762,108.83 -80.915,153.424 -34.64,38.473 -76.063,68.378 -123.115,88.886 -45.455,19.812 -93.74,29.857 -143.509,29.857 -0.003,0.003 -0.006,0.003 -0.012,0.003 z"
   id="path3"
   style="display:inline"
   inkscape:label="Outer_Fill" />
			<path
   fill="#4740b0"
   d="m 528.919,205.362 c 82.519,0.003 165.343,29.369 231.552,88.984 44.006,39.623 74.873,87.03 94.363,138.903 l -9.007,0.473 -18.012,0.943 -10.161,15.369 -10.837,14.759 C 791.999,415.9 763.839,370.932 723.896,334.967 668.428,285.024 598.64,260.436 529.055,260.436 c -79.896,0 -159.523,32.422 -216.866,96.107 -107.286,119.153 -97.576,304.422 21.577,411.707 55.467,49.943 125.254,74.531 194.841,74.531 79.896,0 159.522,-32.422 216.865,-96.107 36.574,-40.62 58.593,-88.218 68.896,-137.783 l 12.388,14.832 11.645,12.936 17.335,-1.554 8.396,0.205 c -12.674,53.56 -38.418,103.934 -78.04,147.938 -68.396,75.963 -162.675,114.607 -257.35,114.607 -82.519,0 -165.342,-29.369 -231.552,-88.984 C 155.02,680.859 143.558,462.141 271.569,319.968 339.966,244.006 434.244,205.358 528.919,205.362 m 10e-4,-25 c -25.357,-0.001 -50.794,2.604 -75.605,7.743 -25.019,5.182 -49.551,12.973 -72.914,23.155 -48.7,21.226 -91.567,52.172 -127.411,91.979 -33.542,37.252 -58.79,79.955 -75.042,126.922 -15.695,45.359 -22.375,92.757 -19.854,140.876 2.522,48.12 14.12,94.56 34.47,138.029 21.072,45.011 50.646,84.84 87.897,118.382 68.329,61.522 156.503,95.405 248.28,95.405 25.357,0 50.794,-2.605 75.604,-7.744 25.02,-5.183 49.551,-12.974 72.913,-23.155 48.701,-21.226 91.568,-52.172 127.411,-91.979 41.572,-46.17 69.763,-99.635 83.789,-158.909 1.735,-7.334 0.07,-15.059 -4.532,-21.025 -4.603,-5.968 -11.651,-9.54 -19.186,-9.724 l -8.396,-0.205 c -0.203,-0.005 -0.406,-0.008 -0.61,-0.008 -0.744,0 -1.489,0.033 -2.231,0.1 l -4.886,0.438 -2.972,-3.302 -12.091,-14.476 c -4.814,-5.766 -11.881,-8.975 -19.188,-8.976 -2.021,0 -4.06,0.245 -6.074,0.75 -9.302,2.33 -16.451,9.774 -18.402,19.163 -10.075,48.465 -31.271,90.905 -62.999,126.143 -50.261,55.821 -122.534,87.836 -198.286,87.836 -66.079,0 -129.333,-24.188 -178.112,-68.109 -52.666,-47.42 -83.728,-112.813 -87.466,-184.133 -3.738,-71.321 20.319,-139.603 67.739,-192.268 50.262,-55.821 122.534,-87.836 198.288,-87.836 66.078,0 129.333,24.188 178.112,68.11 35.818,32.251 62.003,73.227 75.724,118.499 2.747,9.061 10.376,15.792 19.708,17.39 1.408,0.241 2.821,0.359 4.221,0.359 7.873,0 15.391,-3.726 20.148,-10.205 l 10.837,-14.759 c 0.242,-0.331 0.477,-0.667 0.703,-1.009 l 3.207,-4.851 5.419,-0.284 9.01,-0.473 c 7.96,-0.418 15.243,-4.606 19.608,-11.276 4.364,-6.669 5.287,-15.021 2.483,-22.482 C 856.488,366.577 822.495,316.551 777.197,275.765 708.874,214.248 620.7,180.366 528.92,180.362 Z"
   id="path5"
   style="display:inline"
   inkscape:label="Outer_Stroke" />
		</g>
		<g
   id="Inner"
   inkscape:label="Inner">
			<path
   fill="#90e4c2"
   d="m 528.962,782.809 c -17.334,0 -34.741,-1.989 -51.736,-5.913 C 417.304,763.061 366.236,726.528 333.428,674.025 300.62,621.521 290.172,559.606 304.006,499.684 c 11.79,-51.07 41.106,-97.079 82.547,-129.55 40.807,-31.974 91.566,-49.583 142.928,-49.583 17.335,0 34.742,1.99 51.736,5.913 37.413,8.638 71.037,25.71 99.938,50.743 l 12.794,11.081 -70.386,43.979 -6.723,-4.509 c -17.063,-11.446 -35.078,-19.412 -53.544,-23.675 -11.135,-2.571 -22.534,-3.875 -33.882,-3.875 -69.932,0 -132.087,49.372 -147.791,117.396 -18.789,81.385 32.137,162.884 113.522,181.674 11.134,2.57 22.533,3.874 33.879,3.874 69.933,0 132.089,-49.373 147.794,-117.396 4.739,-20.527 5.504,-40.041 2.272,-58 l -1.498,-8.329 70.695,-44.176 4.352,16.356 c 9.829,36.95 10.434,74.655 1.797,112.069 -11.791,51.07 -41.107,97.079 -82.548,129.55 -40.806,31.973 -91.565,49.583 -142.926,49.583 z"
   id="path8"
   style="display:inline"
   inkscape:label="Inner_Fill" />
			<path
   fill="#4740b0"
   d="m 529.48,333.05 c 16.151,10e-4 32.555,1.813 48.925,5.593 36.393,8.402 68.074,25.066 94.566,48.012 l -49.167,30.722 c -17.001,-11.404 -36.393,-20.556 -57.695,-25.474 -12.283,-2.836 -24.575,-4.195 -36.694,-4.195 -74.588,0 -142.519,51.49 -159.971,127.084 -20.288,87.878 35.013,176.377 122.89,196.666 12.283,2.836 24.573,4.194 36.691,4.194 74.587,0 142.521,-51.49 159.974,-127.085 4.918,-21.303 6.081,-42.539 2.396,-63.024 l 49.166,-30.723 c 9.01,33.869 10.099,69.649 1.697,106.044 -23.272,100.799 -113.837,169.445 -213.296,169.445 -16.151,0 -32.554,-1.813 -48.924,-5.593 C 362.868,737.664 289.134,619.666 316.185,502.495 339.456,401.695 430.021,333.042 529.48,333.05 m -0.017,-25 c -27.332,0 -54.335,4.611 -80.27,13.706 -25.43,8.918 -49.099,21.883 -70.35,38.535 -21.459,16.815 -39.795,36.879 -54.498,59.635 -15.234,23.579 -26.175,49.467 -32.519,76.946 -7.37,31.923 -8.227,64.415 -2.547,96.572 5.477,31.004 16.764,60.344 33.548,87.205 16.784,26.86 38.207,49.867 63.672,68.381 26.412,19.202 55.991,32.676 87.914,40.046 17.916,4.136 36.269,6.233 54.548,6.233 27.337,0 54.35,-4.613 80.288,-13.71 25.43,-8.919 49.099,-21.884 70.349,-38.534 21.46,-16.814 39.795,-36.878 54.498,-59.633 15.234,-23.578 26.176,-49.466 32.521,-76.944 9.1,-39.422 8.462,-79.155 -1.896,-118.095 l -8.702,-32.712 -28.706,17.938 -49.166,30.723 -14.354,8.969 2.996,16.659 c 2.93,16.282 2.207,34.105 -2.149,52.974 -14.409,62.411 -71.443,107.709 -135.614,107.709 -10.401,0 -20.854,-1.195 -31.068,-3.554 -74.669,-17.239 -121.393,-92.014 -104.154,-166.683 14.408,-62.41 71.44,-107.708 135.611,-107.708 10.402,0 20.856,1.196 31.07,3.554 16.979,3.92 33.596,11.28 49.393,21.876 l 13.444,9.019 13.73,-8.579 49.166,-30.722 28.707,-17.937 -25.587,-22.162 c -30.458,-26.381 -65.89,-44.372 -105.31,-53.474 -17.91,-4.135 -36.262,-6.232 -54.547,-6.233 v 0 c -0.003,0 -0.013,0 -0.018,0 z"
   id="path10"
   style="display:inline"
   inkscape:label="Inner_Stroke" />
		</g>
		
			<rect
   id="Hide"
   x="719.62402"
   y="73.675003"
   inkscape:label="Hide"
   fill="#d4af37"
   width="268.33899"
   height="860.85797"
   style="display:inline"
   sodipodi:insensitive="true">
		</rect>
		<g
   id="Four"
   inkscape:label="Four">
			<path
   fill="#ee73cd"
   d="m 709.064,910.395 v -335 h -80.426 c -9.774,41.116 -43.886,72.813 -86.273,78.771 -4.765,0.67 -9.607,1.01 -14.395,1.01 -51.354,0 -95.469,-38.341 -102.614,-89.184 -3.837,-27.304 3.245,-54.543 19.94,-76.7 16.695,-22.157 40.928,-36.473 68.232,-40.31 4.291,-0.603 8.718,-0.909 13.159,-0.909 8.992,0 18.291,1.242 27.742,3.7 l 115.198,-152.871 -12.006,-46.15 104.573,-138.776 24.4,95.433 98.459,-2.853 -95.99,127.382 v 161.458 h 186 v 80 h -186 v 335 h -79.999 z m 0,-415 V 379.708 l -87.176,115.687 z"
   id="path14"
   inkscape:label="Four_Fill"
   style="display:inline" />
			<path
   fill="#4740b0"
   d="m 756.527,142.268 19.979,78.141 2.295,1.73 80.619,-2.336 -82.855,109.951 v 178.141 h 186 v 55 h -186 v 335 h -55 v -335 h -103.34 c -5.056,39.744 -36.134,73.064 -77.6,78.893 -4.252,0.598 -8.475,0.888 -12.655,0.888 -44.604,0 -83.861,-33.058 -90.236,-78.423 -6.973,-49.618 27.915,-95.92 77.533,-102.893 3.83,-0.539 7.643,-0.788 11.42,-0.788 11.346,0 22.361,2.249 32.502,5.655 L 683.246,301.6 671.24,255.45 756.527,142.268 M 607.996,507.895 H 721.564 V 342.35 L 602.977,499.721 c 1.794,2.662 3.499,5.367 5.019,8.174 m 159.868,-422.213 -31.303,41.541 -85.287,113.182 -7.271,9.648 3.042,11.691 8.964,34.459 -106.701,141.596 c -7.656,-1.481 -15.218,-2.227 -22.62,-2.227 -5.021,0 -10.035,0.347 -14.901,1.031 -30.608,4.301 -57.768,20.341 -76.473,45.166 -18.705,24.823 -26.637,55.353 -22.335,85.962 3.909,27.818 17.841,53.278 39.229,71.691 21.163,18.219 48.07,28.253 75.764,28.253 5.367,0 10.795,-0.381 16.134,-1.131 44.15,-6.206 80.288,-37.313 93.968,-78.649 h 58.492 v 310 25 h 25 55 25 v -25 -310 h 161 25 v -25 -55 -25 h -25 -161 V 338.119 l 77.821,-103.271 31.305,-41.542 -51.995,1.506 -62.467,1.81 -15.48,-60.548 z m -120.905,397.213 49.605,-65.828 v 65.828 z"
   id="path16"
   style="display:inline"
   inkscape:label="Four_Stroke" />
		</g>
	</g>

</svg>
